<?xml version="1.0" encoding="UTF-8"?>
<svg xmlns="http://www.w3.org/2000/svg" xmlns:xlink="http://www.w3.org/1999/xlink" width="40px" height="40px" viewBox="0 0 40 40" version="1.1">
<g id="surface1">
<path style=" stroke:none;fill-rule:nonzero;fill:rgb(32.156863%,44.313725%,100%);fill-opacity:1;" d="M 25.519531 40.078125 C 17.011719 40.078125 8.546875 40.078125 0.078125 40.078125 C 0.078125 26.746094 0.078125 13.414062 0.078125 0.078125 C 13.414062 0.078125 26.746094 0.078125 40.078125 0.078125 C 40.078125 13.414062 40.078125 26.746094 40.078125 40.078125 C 35.238281 40.078125 30.398438 40.078125 25.519531 40.078125 M 14.445312 24.199219 C 14.445312 25.804688 14.445312 27.414062 14.445312 29.066406 C 14.832031 29.011719 15.152344 28.992188 15.460938 28.921875 C 17.613281 28.417969 19.039062 26.617188 19.042969 24.371094 C 19.050781 19.835938 19.046875 15.304688 19.046875 10.769531 C 19.046875 10.652344 19.035156 10.535156 19.027344 10.398438 C 18.902344 10.394531 18.796875 10.382812 18.695312 10.382812 C 17.386719 10.382812 16.082031 10.390625 14.777344 10.375 C 14.511719 10.371094 14.371094 10.46875 14.234375 10.679688 C 13.222656 12.199219 12.203125 13.710938 11.183594 15.226562 C 10.96875 15.546875 10.75 15.859375 10.507812 16.214844 C 10.40625 16.0625 10.320312 15.945312 10.242188 15.828125 C 9.152344 14.199219 8.027344 12.59375 6.988281 10.933594 C 6.648438 10.394531 6.28125 10.304688 5.746094 10.425781 C 5.722656 10.433594 5.695312 10.441406 5.667969 10.445312 C 3.40625 10.914062 1.945312 12.757812 1.945312 15.171875 C 1.9375 19.652344 1.941406 24.132812 1.941406 28.613281 C 1.941406 28.742188 1.941406 28.871094 1.941406 29.039062 C 2.144531 29.027344 2.300781 29.03125 2.457031 29.011719 C 4.902344 28.671875 6.546875 26.796875 6.554688 24.328125 C 6.5625 22.40625 6.558594 20.488281 6.558594 18.566406 C 6.558594 18.441406 6.558594 18.3125 6.558594 18.074219 C 7.921875 19.628906 9.210938 21.09375 10.507812 22.570312 C 11.808594 21.027344 13.082031 19.507812 14.359375 17.992188 C 14.386719 18 14.417969 18.011719 14.445312 18.019531 C 14.445312 20.050781 14.445312 22.085938 14.445312 24.199219 M 33 18.558594 C 33.160156 18.371094 33.320312 18.183594 33.480469 17.996094 C 33.511719 18.007812 33.546875 18.015625 33.578125 18.027344 C 33.578125 21.691406 33.578125 25.359375 33.578125 29.039062 C 33.777344 29.03125 33.910156 29.03125 34.042969 29.015625 C 36.460938 28.707031 38.15625 26.832031 38.160156 24.394531 C 38.175781 19.835938 38.164062 15.277344 38.164062 10.71875 C 38.164062 10.617188 38.148438 10.515625 38.136719 10.382812 C 36.648438 10.382812 35.1875 10.378906 33.722656 10.398438 C 33.605469 10.398438 33.457031 10.546875 33.375 10.664062 C 32.210938 12.382812 31.054688 14.109375 29.894531 15.835938 C 29.816406 15.949219 29.730469 16.0625 29.625 16.203125 C 29.515625 16.046875 29.433594 15.929688 29.351562 15.8125 C 28.261719 14.183594 27.144531 12.574219 26.097656 10.921875 C 25.769531 10.40625 25.414062 10.289062 24.886719 10.421875 C 24.863281 10.429688 24.835938 10.433594 24.808594 10.441406 C 22.546875 10.894531 21.066406 12.746094 21.0625 15.152344 C 21.058594 19.644531 21.0625 24.136719 21.0625 28.628906 C 21.0625 28.757812 21.0625 28.882812 21.0625 29.039062 C 21.265625 29.027344 21.410156 29.03125 21.554688 29.015625 C 23.988281 28.699219 25.664062 26.808594 25.675781 24.347656 C 25.683594 22.429688 25.675781 20.507812 25.675781 18.589844 C 25.675781 18.453125 25.675781 18.316406 25.675781 18.070312 C 27.046875 19.628906 28.328125 21.089844 29.628906 22.570312 C 30.753906 21.230469 31.859375 19.917969 33 18.558594 Z M 33 18.558594 "/>
<path style=" stroke:none;fill-rule:nonzero;fill:rgb(99.607843%,19.215686%,19.607843%);fill-opacity:1;" d="M 14.445312 24.160156 C 14.445312 22.085938 14.445312 20.050781 14.445312 18.019531 C 14.417969 18.011719 14.386719 18 14.359375 17.992188 C 13.082031 19.507812 11.808594 21.027344 10.507812 22.570312 C 9.210938 21.09375 7.921875 19.628906 6.558594 18.074219 C 6.558594 18.3125 6.558594 18.441406 6.558594 18.566406 C 6.558594 20.488281 6.5625 22.40625 6.554688 24.328125 C 6.546875 26.796875 4.902344 28.671875 2.457031 29.011719 C 2.300781 29.03125 2.144531 29.027344 1.941406 29.039062 C 1.941406 28.871094 1.941406 28.742188 1.941406 28.613281 C 1.941406 24.132812 1.9375 19.652344 1.945312 15.171875 C 1.945312 12.757812 3.40625 10.914062 5.667969 10.445312 C 5.695312 10.441406 5.722656 10.433594 5.746094 10.425781 C 6.28125 10.304688 6.648438 10.394531 6.988281 10.933594 C 8.027344 12.59375 9.152344 14.199219 10.242188 15.828125 C 10.320312 15.945312 10.40625 16.0625 10.507812 16.214844 C 10.75 15.859375 10.96875 15.546875 11.183594 15.226562 C 12.203125 13.710938 13.222656 12.199219 14.234375 10.679688 C 14.371094 10.46875 14.511719 10.371094 14.777344 10.375 C 16.082031 10.390625 17.386719 10.382812 18.695312 10.382812 C 18.796875 10.382812 18.902344 10.394531 19.027344 10.398438 C 19.035156 10.535156 19.046875 10.652344 19.046875 10.769531 C 19.046875 15.304688 19.050781 19.835938 19.042969 24.371094 C 19.039062 26.617188 17.613281 28.417969 15.460938 28.921875 C 15.152344 28.992188 14.832031 29.011719 14.445312 29.066406 C 14.445312 27.414062 14.445312 25.804688 14.445312 24.160156 Z M 14.445312 24.160156 "/>
<path style=" stroke:none;fill-rule:nonzero;fill:rgb(99.607843%,74.117647%,35.294118%);fill-opacity:1;" d="M 32.980469 18.582031 C 31.859375 19.917969 30.753906 21.230469 29.628906 22.570312 C 28.328125 21.089844 27.046875 19.628906 25.675781 18.070312 C 25.675781 18.316406 25.675781 18.453125 25.675781 18.589844 C 25.675781 20.507812 25.683594 22.429688 25.675781 24.347656 C 25.664062 26.808594 23.988281 28.699219 21.554688 29.015625 C 21.410156 29.03125 21.265625 29.027344 21.0625 29.039062 C 21.0625 28.882812 21.0625 28.757812 21.0625 28.628906 C 21.0625 24.136719 21.058594 19.644531 21.0625 15.152344 C 21.066406 12.746094 22.546875 10.894531 24.808594 10.441406 C 24.835938 10.433594 24.863281 10.429688 24.886719 10.421875 C 25.414062 10.289062 25.769531 10.40625 26.097656 10.921875 C 27.144531 12.574219 28.261719 14.183594 29.351562 15.8125 C 29.433594 15.929688 29.515625 16.046875 29.625 16.203125 C 29.730469 16.0625 29.816406 15.949219 29.894531 15.835938 C 31.054688 14.109375 32.210938 12.382812 33.375 10.664062 C 33.457031 10.546875 33.605469 10.398438 33.722656 10.398438 C 35.1875 10.378906 36.648438 10.382812 38.136719 10.382812 C 38.148438 10.515625 38.164062 10.617188 38.164062 10.71875 C 38.164062 15.277344 38.175781 19.835938 38.160156 24.394531 C 38.15625 26.832031 36.460938 28.707031 34.042969 29.015625 C 33.910156 29.03125 33.777344 29.03125 33.578125 29.039062 C 33.578125 25.359375 33.578125 21.691406 33.578125 18.027344 C 33.546875 18.015625 33.511719 18.007812 33.480469 17.996094 C 33.320312 18.183594 33.160156 18.371094 32.980469 18.582031 Z M 32.980469 18.582031 "/>
</g>
</svg>
